<svg width="70" height="62" viewBox="0 0 70 62" fill="none" xmlns="http://www.w3.org/2000/svg">
<path d="M62.5132 0H7.4519C3.31196 0 0 3.31195 0 7.4519V53.8193C0 57.9592 3.31196 61.2712 7.4519 61.2712H62.5132C66.6531 61.2712 69.9651 57.9592 69.9651 53.8193V7.4519C70.3791 3.31195 67.0671 0 62.5132 0ZM62.5132 4.13994H62.9272L37.2595 29.8076C36.0175 31.0496 33.5336 31.0496 32.2916 29.8076L6.62391 4.13994H7.03791H62.5132ZM66.2391 53.8193C66.2391 55.8893 64.5831 57.1312 62.9272 57.1312H7.4519C5.38193 57.1312 4.13994 55.4753 4.13994 53.8193V7.4519V7.03791L29.8076 32.7056C31.4636 34.3615 33.1196 34.7755 35.1895 34.7755C37.2595 34.7755 38.9155 33.9476 40.5715 32.7056L66.2391 7.03791V7.4519V53.8193Z" fill="white"/>
</svg>
