<svg width="50" height="43" viewBox="0 0 50 43" fill="none" xmlns="http://www.w3.org/2000/svg">
<path d="M49.0095 1.17388C48.4226 0.29347 47.5422 0 46.6618 0C46.0748 0 45.4879 0 44.901 0.29347L2.64123 16.4343C0.29347 17.3147 0 18.4886 0 19.369C0 19.956 0.29347 21.4233 2.64123 22.0103L11.4453 24.6515L16.1409 38.1511C16.7278 39.912 18.1952 41.0858 19.956 41.0858C21.1299 41.0858 22.0103 40.4989 22.8907 39.912L28.1731 34.923L36.0968 41.3793C36.9773 41.9662 37.8577 42.5532 38.7381 42.5532C40.4989 42.5532 41.9663 41.0858 42.5532 39.0315L49.8899 4.69552C50.1834 3.22817 49.8899 2.05429 49.0095 1.17388ZM14.38 24.0646L31.4013 15.5539L20.8364 26.7058C20.5429 26.7058 20.5429 26.9993 20.5429 27.2927L18.4886 35.5099L14.38 24.0646ZM21.1299 37.5642C20.8364 37.8577 21.1299 37.5642 21.1299 37.5642L22.8907 30.2274L26.4123 32.8687L21.1299 37.5642ZM46.9552 4.10858L39.912 38.1511C39.912 38.4446 39.6185 39.325 39.0315 39.325C38.7381 39.325 38.4446 39.0315 38.1511 39.0315L29.347 31.9883L24.0646 27.5862L39.325 11.4453C39.912 10.8584 39.912 10.2715 39.325 9.68452C39.0315 8.80411 38.1511 8.51064 37.5642 9.09758L12.3258 21.7168L3.52164 19.0756L45.7814 2.9347C46.0748 2.9347 46.3683 2.9347 46.6618 2.9347H46.9552C46.9552 3.22817 46.9552 3.52164 46.9552 4.10858Z" fill="white"/>
</svg>
